<?xml version="1.0" standalone="no"?>
<!DOCTYPE svg PUBLIC "-//W3C//DTD SVG 20010904//EN"
 "http://www.w3.org/TR/2001/REC-SVG-20010904/DTD/svg10.dtd">
<svg version="1.0" xmlns="http://www.w3.org/2000/svg"
 width="700.000000pt" height="700.000000pt" viewBox="0 0 700.000000 700.000000"
 preserveAspectRatio="xMidYMid meet">
<metadata>
Created by potrace 1.14, written by Peter Selinger 2001-2017
</metadata>
<g transform="translate(0.000000,700.000000) scale(0.100000,-0.100000)"
fill="#000000" stroke="none">
<path d="M737 6990 c-337 -57 -599 -290 -704 -627 l-28 -88 0 -2775 0 -2775
28 -88 c95 -304 300 -509 604 -604 l88 -28 2775 0 2775 0 88 28 c304 95 509
300 604 604 l28 88 0 2775 0 2775 -28 88 c-95 304 -300 509 -604 604 l-88 28
-2745 1 c-1510 1 -2767 -2 -2793 -6z m1283 -909 c52 -18 119 -46 150 -63 192
-109 339 -286 411 -496 33 -96 34 -99 34 -272 0 -173 -1 -176 -34 -272 -72
-210 -219 -387 -411 -496 -31 -17 -98 -46 -150 -64 -93 -32 -98 -33 -270 -33
-172 0 -177 1 -270 33 -138 48 -239 111 -345 217 -106 106 -170 208 -216 345
-28 82 -33 113 -37 226 -3 78 0 159 7 198 51 290 271 558 546 662 121 45 177
54 340 50 138 -2 157 -5 245 -35z m3500 0 c52 -18 119 -46 150 -63 192 -109
339 -286 411 -496 33 -96 34 -99 34 -272 0 -173 -1 -176 -34 -272 -72 -210
-219 -387 -411 -496 -31 -17 -98 -46 -150 -64 -93 -32 -98 -33 -270 -33 -172
0 -177 1 -270 33 -138 48 -239 111 -345 217 -106 106 -169 207 -217 345 -32
93 -33 98 -33 270 0 172 1 176 34 272 101 293 347 516 646 584 41 9 109 13
210 10 138 -2 157 -5 245 -35z m-3500 -3500 c52 -18 119 -46 150 -63 192 -109
339 -286 411 -496 33 -96 34 -99 34 -272 0 -173 -1 -176 -34 -272 -72 -210
-219 -387 -411 -496 -31 -17 -98 -46 -150 -64 -93 -32 -98 -33 -270 -33 -172
0 -177 1 -270 33 -138 48 -239 111 -345 217 -106 106 -170 208 -216 345 -28
82 -33 113 -37 226 -3 78 0 159 7 198 51 290 271 558 546 662 121 45 177 54
340 50 138 -2 157 -5 245 -35z m3500 0 c52 -18 119 -46 150 -63 192 -109 339
-286 411 -496 33 -96 34 -99 34 -272 0 -173 -1 -176 -34 -272 -72 -210 -219
-387 -411 -496 -31 -17 -98 -46 -150 -64 -93 -32 -98 -33 -270 -33 -172 0
-177 1 -270 33 -138 48 -239 111 -345 217 -106 106 -170 208 -216 345 -28 82
-33 113 -37 226 -3 78 0 159 7 198 51 290 271 558 546 662 121 45 177 54 340
50 138 -2 157 -5 245 -35z"/>
<path d="M5105 5934 c-109 -21 -243 -92 -331 -176 -181 -172 -256 -400 -210
-641 41 -211 182 -395 378 -491 282 -140 597 -83 816 148 263 277 252 711 -24
978 -170 163 -395 228 -629 182z"/>
</g>
</svg>
